<svg xmlns="http://www.w3.org/2000/svg" viewBox="0 0 200 200" width="200" height="200" role="img" aria-label="YAMINI element">
  <defs><style>.a{fill:#8c6a1d} .b{fill:#6b5e45} .c{fill:#c9a227} .s{stroke:#8c6a1d;fill:none;stroke-width:2}</style></defs>
  <ellipse cx="138.0" cy="100.0" rx="22" ry="36" fill="hsl(49, 45%, 52%)" transform="rotate(90 138.0 100.0)"/><ellipse cx="126.9" cy="126.9" rx="22" ry="36" fill="hsl(49, 45%, 52%)" transform="rotate(135 126.9 126.9)"/><ellipse cx="100.0" cy="138.0" rx="22" ry="36" fill="hsl(49, 45%, 52%)" transform="rotate(180 100.0 138.0)"/><ellipse cx="73.1" cy="126.9" rx="22" ry="36" fill="hsl(49, 45%, 52%)" transform="rotate(225 73.1 126.9)"/><ellipse cx="62.0" cy="100.0" rx="22" ry="36" fill="hsl(49, 45%, 52%)" transform="rotate(270 62.0 100.0)"/><ellipse cx="73.1" cy="73.1" rx="22" ry="36" fill="hsl(49, 45%, 52%)" transform="rotate(315 73.1 73.1)"/><ellipse cx="100.0" cy="62.0" rx="22" ry="36" fill="hsl(49, 45%, 52%)" transform="rotate(360 100.0 62.0)"/><ellipse cx="126.9" cy="73.1" rx="22" ry="36" fill="hsl(49, 45%, 52%)" transform="rotate(405 126.9 73.1)"/><circle cx="100" cy="100" r="18" fill="#c9a227"/>
</svg>